<svg width="919" height="921" viewBox="0 0 919 921" fill="none" xmlns="http://www.w3.org/2000/svg">
<path d="M254.5 873C264.263 833.166 255.237 794.833 265 755L310.5 781.5L412.5 805.5C412.5 805.5 408.436 835.389 407 848C404.443 870.455 403.795 885.916 389 903C363.138 932.862 288.5 914.5 288.5 914.5C288.5 914.5 319.04 913.587 334 903C353.602 889.128 361.5 848 361.5 848C361.5 848 346.837 870.738 334 882C299.728 912.067 225.989 906.381 203.588 903.841C199.548 903.525 197 903 197 903C197 903 199.394 903.365 203.588 903.841C217.032 904.893 246.993 903.63 254.5 873Z" fill="black"/>
<path d="M700 873C690.237 833.166 699.263 794.833 689.5 755L644 781.5L542 805.5C542 805.5 546.064 835.389 547.5 848C550.057 870.455 550.705 885.916 565.5 903C591.362 932.862 666 914.5 666 914.5C666 914.5 635.46 913.587 620.5 903C600.898 889.128 593 848 593 848C593 848 607.663 870.738 620.5 882C654.772 912.067 728.511 906.381 750.912 903.841C754.952 903.525 757.5 903 757.5 903C757.5 903 755.106 903.365 750.912 903.841C737.468 904.893 707.507 903.63 700 873Z" fill="black"/>
<path d="M859 502.5C859 684.478 687.973 832 477 832C266.027 832 95 684.478 95 502.5C95 320.522 266.027 173 477 173C687.973 173 859 320.522 859 502.5Z" fill="white"/>
<path d="M829 502.5C829 341.1 675.72 203 477 203C278.28 203 125 341.1 125 502.5C125 663.9 278.28 802 477 802V832C266.027 832 95 684.478 95 502.5C95 320.522 266.027 173 477 173C687.973 173 859 320.522 859 502.5C859 684.478 687.973 832 477 832V802C675.72 802 829 663.9 829 502.5Z" fill="black"/>
<path d="M157.241 58.1762C195.146 23.6652 245.171 -4.79103 275.241 0.676199L352.241 14.6762C382.311 20.1435 403.496 33.1467 422.241 40.1762L470.241 58.1762C470.333 58.1285 553.563 14.6762 594.741 14.6762H700.241C700.241 14.6762 785.66 16.5039 822.741 49.6762C859.164 82.2595 891.174 171.49 891.241 171.676C891.241 171.676 905.197 242.213 915.741 293.176C926.285 344.139 901.447 362.23 898.241 404.676C893.802 463.452 886.989 496.375 871.241 553.176C842.395 657.222 775.33 783.173 754.241 803.676C733.153 824.179 686.83 829.174 665.741 849.676C665.853 849.543 744.035 756.555 754.241 677.676C758.01 648.545 758.846 610.675 758.461 575.275C730.417 631.913 693.321 680.571 693.241 680.676C693.289 680.5 716.462 595.233 712.241 547.176C709.73 518.584 703.647 502.926 693.241 476.176C677.046 434.544 661.998 413.178 634.241 378.176C624.266 365.597 607.241 347.176 607.241 347.176C607.241 347.176 590.763 414.391 568.241 451.676C537.996 501.747 474.347 569.564 474.241 569.676C474.312 569.554 505.137 516.05 504.241 482.676C503.58 458.041 478.241 425.176 478.241 425.176C478.241 425.176 475.7 464.257 461.241 482.676C444.857 503.548 389.797 520.159 389.741 520.176C389.825 520.108 432.897 484.991 428.741 462.676C424.58 440.335 384.241 425.176 384.241 425.176C384.241 425.176 342.142 450.51 313.241 462.676C298.569 468.853 281.493 474.077 263.86 478.467C247.444 529.967 233.604 559.209 230.741 578.676V677.676L189.241 578.676C189.241 578.676 204.041 631.901 209.741 677.676C217.474 739.773 291.112 839.002 291.241 839.176C291.051 839.041 147.507 737.488 98.2412 663.176C54.0427 596.507 21.9957 558.293 7.24121 479.676C-11.6891 378.81 7.65689 313.353 51.7412 220.676C66.9745 188.652 79.0659 172.508 98.2412 142.676C120.003 108.82 127.481 85.2719 157.241 58.1762Z" fill="black"/>
<path d="M555 740C561.075 740 566 744.925 566 751C566 757.075 561.075 762 555 762C548.925 762 544 757.075 544 751C544 744.925 548.925 740 555 740Z" fill="black"/>
<path d="M534.412 715.841C539.747 714.411 545.23 717.577 546.659 722.912C548.088 728.246 544.922 733.73 539.588 735.159L484 750.053L428.412 735.159C423.078 733.73 419.912 728.246 421.341 722.912C422.77 717.577 428.253 714.411 433.588 715.841L484 729.347L534.412 715.841Z" fill="black"/>
<path d="M261.415 659.03C262.519 653.619 267.802 650.127 273.213 651.231C278.624 652.335 282.116 657.617 281.012 663.028L276.338 685.933C275.234 691.345 269.952 694.837 264.541 693.733C259.13 692.629 255.638 687.347 256.742 681.935L261.415 659.03Z" fill="black"/>
<path d="M673.415 650.5C678.826 649.396 684.108 652.887 685.212 658.299L689.886 681.204C690.989 686.615 687.498 691.897 682.087 693.002C676.676 694.106 671.394 690.613 670.289 685.202L665.616 662.297C664.512 656.885 668.004 651.604 673.415 650.5Z" fill="black"/>
<path d="M239.641 641.601C243.302 637.467 249.623 637.084 253.757 640.746C257.891 644.408 258.274 650.728 254.612 654.862L239.112 672.362C235.451 676.496 229.13 676.879 224.996 673.218C220.862 669.556 220.479 663.236 224.141 659.101L239.641 641.601Z" fill="black"/>
<path d="M692.87 640.014C697.004 636.353 703.325 636.736 706.986 640.87L722.486 658.37C726.148 662.504 725.765 668.824 721.631 672.486C717.497 676.148 711.177 675.764 707.515 671.631L692.015 654.131C688.353 649.996 688.736 643.676 692.87 640.014Z" fill="black"/>
<path d="M221.112 622.694C225.719 619.648 231.923 620.914 234.969 625.521C238.015 630.128 236.749 636.332 232.142 639.378L212.641 652.27C208.034 655.316 201.83 654.05 198.784 649.443C195.739 644.836 197.004 638.631 201.611 635.586L221.112 622.694Z" fill="black"/>
<path d="M711.658 624.79C714.704 620.183 720.908 618.917 725.515 621.963L745.017 634.854C749.623 637.9 750.889 644.105 747.844 648.712C744.798 653.318 738.593 654.584 733.986 651.539L714.485 638.646C709.878 635.601 708.613 629.397 711.658 624.79Z" fill="black"/>
<path d="M229.545 516.228C255.653 506.518 284.651 501.271 312.165 505.935C337.583 510.244 362.018 522.708 379.249 533.205C388.055 538.569 395.399 543.68 400.564 547.467C403.152 549.364 405.209 550.942 406.648 552.068C407.367 552.631 407.933 553.082 408.334 553.405C408.534 553.566 408.695 553.696 408.812 553.792C408.87 553.839 408.918 553.879 408.955 553.909C408.973 553.924 408.989 553.938 409.002 553.949C409.008 553.954 409.016 553.958 409.021 553.963C409.023 553.965 409.027 553.969 409.027 553.969C409.01 553.996 408.528 554.586 396.857 568.719L409.034 553.973C417.551 561.007 418.753 573.614 411.72 582.131C405.918 589.155 396.326 591.201 388.364 587.757C384.874 614.284 364.093 638.057 334.402 646.012C296.103 656.275 257.482 636.333 248.141 601.47C243.215 583.088 247.415 564.228 258.1 549C253.27 550.319 248.388 551.897 243.488 553.719C221.636 561.847 200.777 574.315 184.493 587.797C175.985 594.84 163.378 593.653 156.334 585.145C149.29 576.637 150.478 564.03 158.985 556.986C178.557 540.783 203.294 525.992 229.545 516.228Z" fill="black"/>
<path d="M634.462 505.204C661.976 500.54 690.975 505.786 717.083 515.497C743.334 525.261 768.072 540.051 787.643 556.254C796.15 563.298 797.337 575.905 790.293 584.413C783.249 592.921 770.642 594.108 762.134 587.065C745.85 573.584 724.991 561.115 703.139 552.987C698.239 551.165 693.357 549.587 688.527 548.267C699.212 563.495 703.412 582.356 698.486 600.739C689.145 635.601 650.525 655.543 612.226 645.281C582.535 637.325 561.753 613.551 558.263 587.024C550.301 590.469 540.71 588.423 534.908 581.398C527.875 572.881 529.077 560.275 537.594 553.242L549.771 567.986C538.088 553.839 537.616 553.263 537.6 553.237C537.6 553.237 537.605 553.233 537.607 553.231C537.613 553.227 537.619 553.222 537.625 553.217C537.638 553.206 537.654 553.192 537.673 553.177C537.71 553.146 537.758 553.107 537.816 553.059C537.933 552.964 538.094 552.834 538.294 552.673C538.695 552.35 539.261 551.9 539.981 551.337C541.419 550.211 543.476 548.633 546.065 546.735C551.229 542.948 558.572 537.837 567.378 532.473C584.61 521.977 609.043 509.513 634.462 505.204Z" fill="black"/>
</svg>
